<?xml version="1.0" encoding="utf-8"?>
<!-- Generator: Adobe Illustrator 16.0.0, SVG Export Plug-In . SVG Version: 6.00 Build 0)  -->
<!DOCTYPE svg PUBLIC "-//W3C//DTD SVG 1.1//EN" "http://www.w3.org/Graphics/SVG/1.1/DTD/svg11.dtd">
<svg version="1.1" id="Layer_1" xmlns="http://www.w3.org/2000/svg" xmlns:xlink="http://www.w3.org/1999/xlink" x="0px" y="0px"
	 width="177.392px" height="67.827px" viewBox="0 0 177.392 67.827" enable-background="new 0 0 177.392 67.827"
	 xml:space="preserve">
<g>
	<path fill="#A8A8A8" d="M128.33,21.593l-0.272-0.009c-0.008-0.001-0.017-0.006-0.024-0.006l-1.005-0.032
		c-1.368-0.105-2.688-0.23-3.966-0.375v-3.559h-1.369c0,0-0.003-0.004-0.006-0.006c-0.1-0.066-8.074-5.292-18.695-7.858
		c-1.358-0.339-2.751-0.631-4.163-0.855c-0.027-0.004-0.055,0-0.081,0.009c-1.538-0.239-3.112-0.41-4.71-0.491
		c-0.097-0.005-0.181,0.07-0.187,0.169c-0.005,0.098,0.07,0.182,0.168,0.187c3.062,0.155,6.036,0.64,8.827,1.311
		c8.743,2.17,16.128,6.362,18.089,7.534h-8.933v-3.611h-11.104v-3.536H83.881c-0.185,0-0.316,0.086-0.316,0.245
		c0,0.24,0.252,0.279,0.323,0.287c0.048,0.005,4.854,0.524,11.255,3.177c8.141,3.372,17.288,6.754,31.668,7.844
		c0.003,0,0.043,0.001,0.108,0.003c0.059,0.006,0.118,0.011,0.178,0.015c0.011,0,1.216,0.039,1.216,0.039
		c0.135,0.004,0.248-0.1,0.251-0.233C128.568,21.709,128.462,21.597,128.33,21.593 M122.621,21.119
		c-5.877-0.689-10.827-1.777-15.21-3.065c4.229,0,14.867,0,15.21,0C122.621,18.369,122.621,20.378,122.621,21.119z M111.561,17.613
		h-5.606c-3.154-0.986-6.021-2.07-8.746-3.17c3.646,0,13.998,0,14.353,0C111.561,14.771,111.561,16.938,111.561,17.613z
		 M100.457,10.908c0,0.328,0,2.458,0,3.094h-4.332c-0.263-0.109-0.525-0.216-0.786-0.325c-3.61-1.496-6.724-2.325-8.797-2.77
		C91.118,10.908,100.139,10.908,100.457,10.908z"/>
	<path fill="#A8A8A8" d="M81.543,47.225h3.372c1.345,0,2.178,0.732,2.178,1.876c0,0.863-0.381,1.575-1.244,1.816v0.021
		c0.833,0.16,1.004,0.773,1.074,1.477c0.06,0.701,0.02,1.484,0.422,1.977h-1.063c-0.272-0.292-0.121-1.064-0.262-1.766
		c-0.101-0.704-0.271-1.295-1.194-1.295h-2.329v3.061h-0.953V47.225 M84.484,50.527c0.894,0,1.657-0.231,1.657-1.275
		c0-0.702-0.383-1.226-1.276-1.226h-2.369v2.501H84.484z"/>
	<path fill="#A8A8A8" d="M92.7,52.745c-0.23,1.144-1.054,1.767-2.217,1.767c-1.659,0-2.44-1.144-2.492-2.729
		c0-1.556,1.025-2.701,2.44-2.701c1.836,0,2.398,1.717,2.349,2.971h-3.884c-0.03,0.904,0.481,1.707,1.616,1.707
		c0.702,0,1.194-0.341,1.345-1.014H92.7 M91.877,51.299c-0.04-0.812-0.652-1.465-1.496-1.465c-0.894,0-1.425,0.672-1.484,1.465
		H91.877z"/>
	<path fill="#A8A8A8" d="M94.268,52.754c0.03,0.764,0.692,1.004,1.396,1.004c0.531,0,1.254-0.121,1.254-0.773
		c0-0.662-0.843-0.771-1.696-0.963c-0.843-0.191-1.696-0.472-1.696-1.465c0-1.044,1.034-1.477,1.937-1.477
		c1.146,0,2.059,0.362,2.129,1.627h-0.853c-0.062-0.662-0.644-0.873-1.206-0.873c-0.511,0-1.103,0.141-1.103,0.662
		c0,0.611,0.902,0.713,1.695,0.902c0.853,0.191,1.697,0.473,1.697,1.477c0,1.234-1.154,1.636-2.208,1.636
		c-1.166,0-2.148-0.472-2.199-1.757H94.268"/>
	<path fill="#A8A8A8" d="M103.215,52.745c-0.23,1.144-1.054,1.767-2.219,1.767c-1.657,0-2.438-1.144-2.49-2.729
		c0-1.556,1.025-2.701,2.439-2.701c1.837,0,2.399,1.717,2.349,2.971h-3.883c-0.03,0.904,0.481,1.707,1.614,1.707
		c0.703,0,1.195-0.341,1.346-1.014H103.215 M102.392,51.299c-0.041-0.812-0.652-1.465-1.496-1.465c-0.894,0-1.424,0.672-1.484,1.465
		H102.392z"/>
	<path fill="#A8A8A8" d="M108.833,54.371c-0.15,0.091-0.342,0.141-0.613,0.141c-0.44,0-0.723-0.241-0.723-0.804
		c-0.471,0.553-1.104,0.804-1.825,0.804c-0.944,0-1.717-0.421-1.717-1.455c0-1.175,0.872-1.426,1.756-1.597
		c0.943-0.18,1.746-0.119,1.746-0.762c0-0.744-0.611-0.863-1.153-0.863c-0.724,0-1.254,0.221-1.294,0.983h-0.854
		c0.05-1.284,1.043-1.737,2.196-1.737c0.934,0,1.948,0.211,1.948,1.426v2.67c0,0.402,0,0.582,0.271,0.582
		c0.07,0,0.15-0.01,0.261-0.051V54.371 M107.447,51.711c-0.331,0.24-0.973,0.25-1.546,0.352c-0.562,0.1-1.044,0.301-1.044,0.934
		c0,0.562,0.482,0.762,1.004,0.762c1.125,0,1.586-0.702,1.586-1.174V51.711z"/>
	<path fill="#A8A8A8" d="M109.653,49.202h0.803v1.094h0.021c0.412-0.832,0.982-1.244,1.906-1.215v0.904
		c-1.374,0-1.876,0.783-1.876,2.098v2.309h-0.854V49.202"/>
	<path fill="#A8A8A8" d="M116.538,50.868c-0.13-0.651-0.581-1.033-1.283-1.033c-1.235,0-1.616,0.973-1.616,2.027
		c0,0.953,0.431,1.896,1.515,1.896c0.823,0,1.315-0.482,1.425-1.264h0.875c-0.191,1.264-0.984,2.017-2.29,2.017
		c-1.584,0-2.428-1.104-2.428-2.649c0-1.556,0.803-2.781,2.449-2.781c1.174,0,2.117,0.553,2.237,1.787H116.538"/>
	<path fill="#A8A8A8" d="M118.426,47.225h0.854v2.739h0.02c0.282-0.622,1.016-0.884,1.637-0.884c1.365,0,1.786,0.783,1.786,1.897
		v3.413h-0.853v-3.514c0-0.632-0.401-1.043-1.054-1.043c-1.034,0-1.536,0.692-1.536,1.625v2.932h-0.854V47.225"/>
	<path fill="#A8A8A8" d="M131.971,49.383c-0.2-1.016-1.014-1.527-2.007-1.527c-1.706,0-2.43,1.406-2.43,2.9
		c0,1.637,0.724,3.002,2.44,3.002c1.256,0,1.978-0.883,2.067-2.066h0.954c-0.181,1.786-1.296,2.869-3.102,2.869
		c-2.229,0-3.312-1.645-3.312-3.732c0-2.078,1.184-3.774,3.392-3.774c1.495,0,2.73,0.802,2.951,2.329H131.971"/>
	<path fill="#A8A8A8" d="M138.576,54.371c-0.15,0.091-0.341,0.141-0.611,0.141c-0.442,0-0.725-0.241-0.725-0.804
		c-0.471,0.553-1.104,0.804-1.825,0.804c-0.945,0-1.718-0.421-1.718-1.455c0-1.175,0.875-1.426,1.758-1.597
		c0.943-0.18,1.745-0.119,1.745-0.762c0-0.744-0.611-0.863-1.153-0.863c-0.724,0-1.255,0.221-1.295,0.983h-0.853
		c0.05-1.284,1.044-1.737,2.197-1.737c0.934,0,1.948,0.211,1.948,1.426v2.67c0,0.402,0,0.582,0.271,0.582
		c0.07,0,0.15-0.01,0.261-0.051V54.371 M137.192,51.711c-0.333,0.24-0.976,0.25-1.547,0.352c-0.562,0.1-1.043,0.301-1.043,0.934
		c0,0.562,0.481,0.762,1.003,0.762c1.124,0,1.587-0.702,1.587-1.174V51.711z"/>
	<path fill="#A8A8A8" d="M139.415,49.202h0.802v0.763h0.021c0.38-0.581,0.964-0.884,1.676-0.884c0.632,0,1.215,0.252,1.425,0.884
		c0.353-0.552,0.965-0.884,1.627-0.884c1.032,0,1.726,0.433,1.726,1.506v3.805h-0.854v-3.402c0-0.643-0.17-1.154-1.003-1.154
		c-0.823,0-1.356,0.522-1.356,1.325v3.231h-0.852v-3.402c0-0.672-0.211-1.154-0.975-1.154c-1.014,0-1.384,0.934-1.384,1.325v3.231
		h-0.853V49.202"/>
	<path fill="#A8A8A8" d="M148.002,49.202h0.853v0.703h0.02c0.281-0.572,0.943-0.824,1.657-0.824c1.595,0,2.388,1.266,2.388,2.73
		s-0.783,2.7-2.368,2.7c-0.532,0-1.295-0.201-1.677-0.813h-0.02v2.68h-0.853V49.202 M150.408,49.834
		c-1.143,0-1.584,0.983-1.584,1.957c0,1.023,0.462,1.967,1.637,1.967c1.163,0,1.554-0.994,1.554-2.008
		C152.015,50.778,151.515,49.834,150.408,49.834z"/>
	<path fill="#A8A8A8" d="M158.23,54.391h-0.802v-0.824h-0.021c-0.362,0.643-0.945,0.944-1.687,0.944
		c-1.365,0-1.786-0.782-1.786-1.896v-3.413h0.853v3.513c0,0.634,0.401,1.044,1.054,1.044c1.034,0,1.536-0.692,1.536-1.626v-2.931
		h0.853V54.391"/>
	<path fill="#A8A8A8" d="M160.075,52.754c0.029,0.764,0.691,1.004,1.395,1.004c0.532,0,1.254-0.121,1.254-0.773
		c0-0.662-0.843-0.771-1.696-0.963c-0.842-0.191-1.695-0.472-1.695-1.465c0-1.044,1.033-1.477,1.938-1.477
		c1.144,0,2.057,0.362,2.128,1.627h-0.854c-0.061-0.662-0.643-0.873-1.203-0.873c-0.513,0-1.105,0.141-1.105,0.662
		c0,0.611,0.902,0.713,1.696,0.902c0.853,0.191,1.695,0.473,1.695,1.477c0,1.234-1.154,1.636-2.206,1.636
		c-1.166,0-2.149-0.472-2.199-1.757H160.075"/>
	<path fill="#A8A8A8" d="M88.364,26.102c0.065-0.225,0.104-0.462,0.104-0.708c0-1.373-1.113-2.487-2.488-2.487
		c-1.373,0-2.487,1.114-2.487,2.487c0,0.247,0.036,0.484,0.104,0.708H88.364"/>
	<path fill="#A8A8A8" d="M147.56,26.102c0.067-0.225,0.104-0.462,0.104-0.708c0-1.373-1.113-2.487-2.487-2.487
		c-1.373,0-2.487,1.114-2.487,2.487c0,0.247,0.035,0.484,0.103,0.708H147.56"/>
	<path fill="#A8A8A8" d="M88.36,27.637v10.768c0,2.953-0.295,5.179-4.701,5.179c-0.659,0-1.318-0.022-2.158-0.067v-3.362
		c1.862,0,2.136-0.114,2.136-1.749V27.637H88.36"/>
	<path fill="#A8A8A8" d="M98.812,39.541l-0.228-1.272c-1.342,1.25-2.704,1.613-4.476,1.613c-2.248,0-4.248-1.114-4.248-3.59
		c0-5.405,8.474-2.952,8.474-5.179c0-0.863-1.046-0.977-1.545-0.977c-0.659,0-1.545,0.136-1.659,1.158h-4.542
		c0-2.521,1.794-3.998,6.497-3.998c5.634,0,5.974,2.089,5.974,4.93v5.565c0,0.681,0.022,1.021,0.636,1.521v0.228H98.812
		 M98.334,34.27c-1.545,0.75-3.589,0.386-3.589,1.932c0,0.591,0.568,0.998,1.499,0.998C97.901,37.2,98.447,35.906,98.334,34.27z"/>
	<path fill="#A8A8A8" d="M105.309,27.637h4.315V29.5c1.069-1.431,2.226-2.203,4.021-2.203c3.134,0,4.61,1.84,4.61,5.111v7.133
		h-4.725v-6.292c0-1.182-0.317-2.227-1.658-2.227c-1.453,0-1.841,0.932-1.841,2.453v6.065h-4.724V27.637"/>
	<path fill="#A8A8A8" d="M124.572,34.656c0,1.409,1.09,2.34,2.34,2.34c0.749,0,1.432-0.34,1.772-1.045h4.519
		c-0.816,2.953-3.815,3.931-6.586,3.931c-3.816,0-6.77-2.181-6.77-6.179c0-3.908,2.93-6.406,6.746-6.406
		c4.407,0,7.065,3.044,6.997,7.359H124.572 M128.865,32.249c0-1.091-0.977-2.068-2.09-2.068c-1.408,0-2.203,0.795-2.203,2.068
		H128.865z"/>
	<rect x="135.477" y="23.185" fill="#A8A8A8" width="4.726" height="16.354"/>
	<rect x="142.813" y="27.637" fill="#A8A8A8" width="4.725" height="11.903"/>
	<path fill="#A8A8A8" d="M158.262,39.541l-0.228-1.272c-1.34,1.25-2.704,1.613-4.476,1.613c-2.248,0-4.247-1.114-4.247-3.59
		c0-5.405,8.473-2.952,8.473-5.179c0-0.863-1.045-0.977-1.544-0.977c-0.659,0-1.545,0.136-1.659,1.158h-4.542
		c0-2.521,1.794-3.998,6.495-3.998c5.635,0,5.975,2.089,5.975,4.93v5.565c0,0.681,0.023,1.021,0.636,1.521v0.228H158.262
		 M157.784,34.27c-1.544,0.75-3.589,0.386-3.589,1.932c0,0.591,0.568,0.998,1.5,0.998C157.353,37.2,157.898,35.906,157.784,34.27z"
		/>
	<path fill="#A8A8A8" d="M10.326,23.065h4.592v5.821h0.046c0.788-0.928,1.81-1.601,3.759-1.601c2.156,0,4.127,1.322,4.127,4.082
		v8.257h-4.593v-6.309c0-1.391-0.161-2.366-1.505-2.366c-0.79,0-1.834,0.395-1.834,2.32v6.354h-4.592V23.065"/>
	<path fill="#A8A8A8" d="M24.858,23.065h4.594v5.821h0.046c0.788-0.928,1.809-1.601,3.757-1.601c2.156,0,4.128,1.322,4.128,4.082
		v8.257h-4.592v-6.309c0-1.391-0.163-2.366-1.508-2.366c-0.788,0-1.831,0.395-1.831,2.32v6.354h-4.594V23.065"/>
	<path fill="#A8A8A8" d="M39.381,27.587h4.429v1.601h0.047c0.928-1.392,2.273-1.902,3.942-1.902c1.3,0,2.69,0.672,3.247,1.879
		c0.186-0.14,1.112-1.879,4.104-1.879c3.084,0,4.129,2.133,4.129,4.082v8.257h-4.592v-6.518c0-1.136-0.116-2.157-1.507-2.157
		c-1.161,0-1.556,0.904-1.556,2.157v6.518h-4.591v-6.518c0-1.136-0.116-2.157-1.508-2.157c-1.158,0-1.555,0.904-1.555,2.157v6.518
		h-4.591V27.587"/>
	<rect x="61.233" y="27.587" fill="#A8A8A8" width="4.593" height="12.037"/>
	<path fill="#A8A8A8" d="M65.946,26.112c0.067-0.227,0.105-0.468,0.105-0.717c0-1.394-1.129-2.522-2.521-2.522
		c-1.395,0-2.522,1.128-2.522,2.522c0,0.249,0.037,0.49,0.106,0.717H65.946"/>
	<rect x="74.231" y="21.5" fill="#A8A8A8" width="0.376" height="32.785"/>
</g>
</svg>
