<?xml version="1.0" encoding="utf-8"?>
<!-- Generator: Adobe Illustrator 16.0.0, SVG Export Plug-In . SVG Version: 6.00 Build 0)  -->
<!DOCTYPE svg PUBLIC "-//W3C//DTD SVG 1.1//EN" "http://www.w3.org/Graphics/SVG/1.1/DTD/svg11.dtd">
<svg version="1.1" id="Layer_1" xmlns="http://www.w3.org/2000/svg" xmlns:xlink="http://www.w3.org/1999/xlink" x="0px" y="0px"
	 width="91px" height="22px" viewBox="0 0 91 22" enable-background="new 0 0 91 22" xml:space="preserve">
<g>
	<path fill="#4D4D4D" d="M8.082,15.525l-2.404-5.357L5.183,9.014v3.723v2.789H3.645V6.548h2.074l2.452,5.392l0.433,1.051V9.028
		V6.548h1.539v8.977H8.082z"/>
	<path fill="#4D4D4D" d="M11.997,15.525V6.548h5.406v1.429h-3.688v2.232h3.517v1.395h-3.517v2.493h3.688v1.429H11.997z"/>
	<path fill="#4D4D4D" d="M25.603,12.222c0,0.572-0.077,1.075-0.23,1.508S25,14.522,24.714,14.811
		c-0.286,0.289-0.635,0.506-1.047,0.652c-0.412,0.147-0.875,0.221-1.388,0.221c-0.577,0-1.071-0.073-1.483-0.221
		c-0.412-0.146-0.747-0.356-1.003-0.631c-0.256-0.275-0.442-0.609-0.557-1.004c-0.114-0.393-0.171-0.835-0.171-1.325V6.548h1.689
		V12.4c0,0.302,0.026,0.57,0.079,0.803c0.053,0.234,0.144,0.432,0.275,0.595c0.13,0.163,0.294,0.285,0.491,0.368
		c0.197,0.082,0.444,0.123,0.742,0.123c0.279,0,0.515-0.035,0.708-0.106c0.192-0.071,0.353-0.186,0.48-0.343
		c0.128-0.158,0.225-0.361,0.289-0.608c0.064-0.248,0.096-0.547,0.096-0.9V6.548h1.689V12.222z"/>
	<path fill="#4D4D4D" d="M31.613,15.525l-1.264-2.885c-0.119-0.275-0.285-0.482-0.498-0.622c-0.213-0.14-0.464-0.209-0.752-0.209
		h-0.323v3.716h-1.689V6.548h2.617c0.495,0,0.943,0.042,1.346,0.127s0.747,0.226,1.03,0.422c0.284,0.197,0.502,0.453,0.656,0.769
		c0.153,0.316,0.23,0.703,0.23,1.161c0,0.33-0.048,0.623-0.145,0.879c-0.096,0.257-0.231,0.478-0.405,0.663
		c-0.174,0.186-0.381,0.335-0.622,0.45c-0.24,0.115-0.502,0.195-0.786,0.24c0.22,0.046,0.421,0.171,0.604,0.375
		c0.183,0.204,0.366,0.498,0.549,0.883l1.436,3.008H31.613z M31.194,9.192c0-0.439-0.14-0.755-0.419-0.948
		c-0.28-0.192-0.699-0.289-1.257-0.289h-0.742v2.535h0.687c0.261,0,0.498-0.027,0.711-0.083c0.213-0.055,0.395-0.137,0.546-0.247
		s0.268-0.246,0.35-0.409C31.153,9.59,31.194,9.403,31.194,9.192z"/>
	<path fill="#4D4D4D" d="M41.415,10.999c0,0.815-0.095,1.518-0.285,2.108c-0.19,0.591-0.451,1.076-0.783,1.457
		c-0.332,0.379-0.721,0.661-1.167,0.844c-0.446,0.184-0.924,0.275-1.432,0.275c-1.181,0-2.07-0.393-2.665-1.178
		s-0.893-1.927-0.893-3.424c0-0.815,0.095-1.518,0.285-2.109s0.451-1.076,0.783-1.456c0.332-0.38,0.721-0.662,1.167-0.845
		c0.447-0.183,0.924-0.275,1.432-0.275c1.182,0,2.07,0.392,2.665,1.175C41.117,8.354,41.415,9.497,41.415,10.999z M39.628,11.082
		c0-1.062-0.142-1.854-0.426-2.376c-0.284-0.522-0.751-0.783-1.401-0.783c-0.325,0-0.603,0.067-0.831,0.203
		c-0.229,0.135-0.418,0.333-0.567,0.594c-0.149,0.261-0.257,0.583-0.326,0.965s-0.103,0.821-0.103,1.315
		c0,1.062,0.143,1.854,0.429,2.376c0.286,0.522,0.752,0.783,1.398,0.783c0.325,0,0.603-0.067,0.834-0.202
		c0.231-0.136,0.42-0.333,0.566-0.595c0.146-0.261,0.254-0.582,0.323-0.964C39.594,12.015,39.628,11.576,39.628,11.082z"/>
	<path fill="#4D4D4D" d="M44.649,7.977v2.486h3.394v1.387h-3.394v3.675h-1.717V6.548h5.302v1.429H44.649z"/>
	<path fill="#4D4D4D" d="M50.433,7.929v-1.38h5.674v1.38h-1.979v6.202h1.979v1.395h-5.674v-1.395h1.979V7.929H50.433z"/>
	<path fill="#4D4D4D" d="M62.22,15.525l-2.404-5.357l-0.494-1.154v3.723v2.789h-1.539V6.548h2.074l2.452,5.392l0.433,1.051V9.028
		V6.548h1.539v8.977H62.22z"/>
	<path fill="#4D4D4D" d="M72.241,10.923c0,0.696-0.086,1.328-0.258,1.896c-0.172,0.567-0.439,1.052-0.804,1.452
		c-0.364,0.401-0.83,0.711-1.397,0.928c-0.568,0.217-1.248,0.326-2.04,0.326h-2.28V6.548h2.658c0.687,0,1.288,0.085,1.803,0.257
		c0.516,0.172,0.944,0.436,1.288,0.793c0.344,0.357,0.601,0.811,0.772,1.36S72.241,10.164,72.241,10.923z M70.428,11.033
		c0-0.485-0.039-0.918-0.117-1.298c-0.077-0.38-0.209-0.702-0.395-0.965c-0.186-0.263-0.434-0.463-0.745-0.601
		c-0.312-0.137-0.698-0.206-1.161-0.206h-0.858v6.147h0.742c0.828,0,1.458-0.247,1.889-0.741
		C70.213,12.874,70.428,12.096,70.428,11.033z"/>
	<path fill="#4D4D4D" d="M73.869,15.525V6.548h5.405v1.429h-3.688v2.232h3.517v1.395h-3.517v2.493h3.688v1.429H73.869z"/>
	<path fill="#4D4D4D" d="M85.752,15.525l-1.264-2.885c-0.119-0.275-0.285-0.482-0.498-0.622s-0.463-0.209-0.752-0.209h-0.322v3.716
		h-1.69V6.548h2.617c0.494,0,0.943,0.042,1.347,0.127c0.402,0.085,0.746,0.226,1.03,0.422c0.283,0.197,0.502,0.453,0.655,0.769
		c0.153,0.316,0.23,0.703,0.23,1.161c0,0.33-0.048,0.623-0.145,0.879c-0.096,0.257-0.231,0.478-0.405,0.663s-0.381,0.335-0.621,0.45
		c-0.24,0.115-0.503,0.195-0.787,0.24c0.22,0.046,0.422,0.171,0.604,0.375c0.184,0.204,0.366,0.498,0.55,0.883l1.436,3.008H85.752z
		 M85.333,9.192c0-0.439-0.14-0.755-0.419-0.948s-0.698-0.289-1.257-0.289h-0.741v2.535h0.687c0.261,0,0.498-0.027,0.711-0.083
		c0.213-0.055,0.395-0.137,0.546-0.247s0.268-0.246,0.351-0.409C85.292,9.59,85.333,9.403,85.333,9.192z"/>
</g>
</svg>
