<?xml version="1.0" encoding="utf-8"?>
<!-- Generator: Adobe Illustrator 16.0.0, SVG Export Plug-In . SVG Version: 6.00 Build 0)  -->
<!DOCTYPE svg PUBLIC "-//W3C//DTD SVG 1.1//EN" "http://www.w3.org/Graphics/SVG/1.1/DTD/svg11.dtd">
<svg version="1.1" id="Layer_1" xmlns="http://www.w3.org/2000/svg" xmlns:xlink="http://www.w3.org/1999/xlink" x="0px" y="0px"
	 width="72.75px" height="27.25px" viewBox="0 0 72.75 27.25" enable-background="new 0 0 72.75 27.25" xml:space="preserve">
<g>
	<path fill="#4D4D4D" d="M12.956,11.869c0,0.188-0.01,0.417-0.031,0.687c-0.021,0.271-0.062,0.562-0.124,0.876
		c-0.062,0.313-0.149,0.639-0.261,0.975s-0.262,0.665-0.45,0.986c-0.188,0.32-0.416,0.625-0.684,0.913s-0.588,0.542-0.961,0.759
		c-0.374,0.218-0.804,0.391-1.292,0.519s-1.043,0.192-1.666,0.192H5.139l1.799-8.977h2.576c1.135,0,1.993,0.255,2.572,0.766
		C12.666,10.075,12.956,10.843,12.956,11.869z M11.142,12.013c0-0.289-0.034-0.545-0.103-0.77c-0.068-0.224-0.178-0.412-0.33-0.563
		c-0.151-0.151-0.348-0.267-0.591-0.347s-0.538-0.121-0.886-0.121h-0.9L7.104,16.36h0.708c0.481,0,0.897-0.077,1.25-0.229
		c0.353-0.154,0.651-0.354,0.896-0.602c0.245-0.247,0.445-0.529,0.601-0.845c0.155-0.316,0.276-0.634,0.36-0.955
		c0.085-0.321,0.143-0.632,0.175-0.934C11.126,12.494,11.142,12.232,11.142,12.013z"/>
	<path fill="#4D4D4D" d="M15.469,17.934c-0.678,0-1.191-0.211-1.542-0.633c-0.35-0.42-0.525-1.018-0.525-1.792
		c0-0.701,0.094-1.347,0.282-1.94c0.188-0.593,0.46-1.104,0.817-1.532c0.357-0.428,0.795-0.762,1.315-1.003
		c0.52-0.24,1.109-0.36,1.769-0.36c0.353,0,0.667,0.024,0.944,0.072c0.277,0.048,0.519,0.104,0.725,0.168l1.195-0.254l-0.77,3.867
		c-0.027,0.147-0.055,0.304-0.083,0.471c-0.027,0.167-0.056,0.373-0.085,0.618c-0.03,0.245-0.063,0.541-0.1,0.89
		c-0.037,0.348-0.078,0.771-0.124,1.271h-1.367l0.055-1.264c-0.105,0.16-0.238,0.324-0.398,0.49c-0.161,0.168-0.347,0.32-0.56,0.457
		c-0.213,0.138-0.449,0.251-0.708,0.341C16.052,17.889,15.771,17.934,15.469,17.934z M18.485,12.136
		c-0.147-0.05-0.297-0.089-0.45-0.117s-0.317-0.041-0.491-0.041c-0.325,0-0.61,0.058-0.855,0.175s-0.457,0.271-0.635,0.46
		s-0.326,0.406-0.443,0.649c-0.117,0.243-0.209,0.49-0.278,0.742c-0.069,0.252-0.117,0.5-0.145,0.746
		c-0.027,0.245-0.041,0.461-0.041,0.648c0,0.367,0.063,0.646,0.189,0.838c0.126,0.193,0.317,0.289,0.573,0.289
		c0.211,0,0.435-0.085,0.673-0.254c0.238-0.17,0.465-0.387,0.68-0.652c0.215-0.266,0.404-0.562,0.566-0.887
		c0.163-0.325,0.273-0.643,0.333-0.955L18.485,12.136z"/>
	<path fill="#4D4D4D" d="M26.878,17.68c-0.316,0.078-0.631,0.14-0.944,0.185c-0.314,0.046-0.608,0.069-0.883,0.069
		c-0.458,0-0.851-0.051-1.178-0.151c-0.328-0.101-0.587-0.261-0.78-0.481c-0.192-0.219-0.312-0.506-0.36-0.857
		c-0.048-0.354-0.022-0.781,0.079-1.285l0.618-3.057h-1.868l0.254-1.305h1.868l0.364-1.786l1.807-0.447l-0.453,2.232h2.713
		l-0.254,1.305h-2.713l-0.618,3.07c-0.046,0.234-0.067,0.439-0.065,0.615c0.002,0.176,0.037,0.319,0.103,0.43
		c0.066,0.109,0.166,0.195,0.299,0.257s0.307,0.093,0.522,0.093c0.257,0,0.511-0.023,0.763-0.068
		c0.252-0.046,0.495-0.096,0.728-0.151V17.68z"/>
	<path fill="#4D4D4D" d="M30.937,17.934c-0.678,0-1.191-0.211-1.542-0.633c-0.35-0.42-0.525-1.018-0.525-1.792
		c0-0.701,0.094-1.347,0.282-1.94c0.188-0.593,0.46-1.104,0.817-1.532c0.357-0.428,0.795-0.762,1.315-1.003
		c0.52-0.24,1.109-0.36,1.769-0.36c0.353,0,0.667,0.024,0.944,0.072c0.277,0.048,0.519,0.104,0.725,0.168l1.195-0.254l-0.77,3.867
		c-0.027,0.147-0.055,0.304-0.083,0.471c-0.027,0.167-0.056,0.373-0.085,0.618c-0.03,0.245-0.063,0.541-0.1,0.89
		c-0.037,0.348-0.078,0.771-0.124,1.271h-1.367l0.055-1.264c-0.105,0.16-0.238,0.324-0.398,0.49c-0.161,0.168-0.347,0.32-0.56,0.457
		c-0.213,0.138-0.449,0.251-0.708,0.341C31.52,17.889,31.239,17.934,30.937,17.934z M33.953,12.136
		c-0.147-0.05-0.297-0.089-0.45-0.117s-0.317-0.041-0.491-0.041c-0.325,0-0.61,0.058-0.855,0.175s-0.457,0.271-0.635,0.46
		s-0.326,0.406-0.443,0.649c-0.117,0.243-0.209,0.49-0.278,0.742c-0.069,0.252-0.117,0.5-0.145,0.746
		c-0.027,0.245-0.041,0.461-0.041,0.648c0,0.367,0.063,0.646,0.189,0.838c0.126,0.193,0.317,0.289,0.573,0.289
		c0.211,0,0.435-0.085,0.673-0.254c0.238-0.17,0.465-0.387,0.68-0.652c0.215-0.266,0.404-0.562,0.566-0.887
		c0.163-0.325,0.273-0.643,0.333-0.955L33.953,12.136z"/>
	<path fill="#4D4D4D" d="M38.87,17.934c-0.508,0-0.98-0.032-1.415-0.097c-0.435-0.063-0.854-0.16-1.257-0.288l0.323-1.587
		c0.192,0.069,0.396,0.133,0.611,0.192s0.433,0.109,0.653,0.151c0.22,0.041,0.439,0.073,0.659,0.097
		c0.22,0.022,0.433,0.033,0.639,0.033c0.362,0,0.672-0.033,0.931-0.1s0.472-0.156,0.639-0.271c0.167-0.113,0.29-0.246,0.368-0.395
		c0.078-0.148,0.117-0.305,0.117-0.47c0-0.192-0.051-0.358-0.154-0.498s-0.241-0.267-0.412-0.381
		c-0.172-0.114-0.367-0.222-0.584-0.323c-0.218-0.101-0.439-0.205-0.666-0.312c-0.227-0.107-0.448-0.224-0.663-0.35
		s-0.409-0.275-0.581-0.447c-0.171-0.171-0.309-0.371-0.412-0.597c-0.103-0.227-0.154-0.494-0.154-0.8
		c0-0.366,0.077-0.72,0.23-1.061c0.153-0.341,0.389-0.645,0.708-0.91s0.724-0.478,1.216-0.636c0.492-0.158,1.077-0.237,1.755-0.237
		c0.197,0,0.395,0.008,0.594,0.024c0.199,0.016,0.394,0.037,0.583,0.062c0.19,0.025,0.37,0.055,0.54,0.089
		c0.169,0.034,0.323,0.07,0.46,0.106l-0.295,1.49c-0.133-0.045-0.283-0.088-0.45-0.127c-0.167-0.039-0.341-0.073-0.522-0.103
		c-0.181-0.03-0.363-0.053-0.546-0.069c-0.183-0.016-0.357-0.024-0.522-0.024c-0.325,0-0.604,0.029-0.838,0.086
		c-0.233,0.057-0.426,0.135-0.577,0.233c-0.151,0.099-0.262,0.215-0.333,0.351c-0.071,0.135-0.106,0.278-0.106,0.429
		c0,0.174,0.053,0.326,0.158,0.457c0.105,0.131,0.244,0.251,0.416,0.361s0.366,0.215,0.584,0.316
		c0.217,0.101,0.44,0.207,0.669,0.319s0.452,0.235,0.67,0.368c0.217,0.133,0.412,0.287,0.583,0.463
		c0.172,0.176,0.311,0.38,0.416,0.611c0.105,0.231,0.158,0.498,0.158,0.8c0,0.463-0.099,0.881-0.295,1.257s-0.478,0.696-0.841,0.962
		c-0.364,0.266-0.805,0.469-1.322,0.611C40.083,17.862,39.507,17.934,38.87,17.934z"/>
	<path fill="#4D4D4D" d="M46.199,14.863c-0.009,0.055-0.016,0.118-0.021,0.188c-0.004,0.071-0.007,0.15-0.007,0.237
		c0,0.416,0.131,0.738,0.395,0.965c0.263,0.227,0.651,0.34,1.164,0.34c0.343,0,0.712-0.025,1.106-0.078
		c0.394-0.053,0.771-0.13,1.133-0.23v1.305c-0.385,0.102-0.798,0.184-1.24,0.247c-0.442,0.064-0.883,0.097-1.322,0.097
		c-0.449,0-0.852-0.055-1.209-0.165c-0.357-0.11-0.659-0.272-0.907-0.487c-0.247-0.216-0.437-0.486-0.57-0.811
		c-0.133-0.325-0.199-0.705-0.199-1.141c0-0.632,0.097-1.231,0.292-1.799c0.194-0.568,0.469-1.066,0.824-1.494
		c0.354-0.428,0.782-0.767,1.281-1.017s1.056-0.374,1.669-0.374c0.398,0,0.752,0.045,1.062,0.137s0.57,0.22,0.783,0.385
		c0.213,0.165,0.375,0.363,0.488,0.594c0.111,0.231,0.168,0.487,0.168,0.766c0,0.353-0.072,0.672-0.213,0.958
		c-0.143,0.286-0.371,0.531-0.688,0.735c-0.316,0.204-0.727,0.362-1.233,0.474s-1.121,0.168-1.844,0.168H46.199z M47.195,13.668
		c0.481,0,0.868-0.027,1.161-0.083c0.293-0.055,0.521-0.127,0.684-0.216s0.271-0.193,0.326-0.312s0.083-0.243,0.083-0.371
		c0-0.242-0.094-0.435-0.282-0.577c-0.188-0.142-0.438-0.213-0.749-0.213c-0.252,0-0.483,0.047-0.694,0.141s-0.397,0.221-0.56,0.381
		c-0.163,0.16-0.302,0.348-0.419,0.563c-0.117,0.215-0.21,0.444-0.278,0.687H47.195z"/>
	<path fill="#4D4D4D" d="M57.813,17.68c-0.316,0.078-0.631,0.14-0.944,0.185c-0.313,0.046-0.608,0.069-0.883,0.069
		c-0.458,0-0.851-0.051-1.178-0.151s-0.587-0.261-0.779-0.481c-0.192-0.219-0.312-0.506-0.361-0.857
		c-0.048-0.354-0.021-0.781,0.079-1.285l0.618-3.057h-1.868l0.254-1.305h1.868l0.364-1.786l1.807-0.447l-0.453,2.232h2.713
		l-0.254,1.305h-2.713l-0.618,3.07c-0.046,0.234-0.068,0.439-0.065,0.615c0.002,0.176,0.036,0.319,0.103,0.43
		c0.066,0.109,0.166,0.195,0.299,0.257s0.307,0.093,0.522,0.093c0.256,0,0.511-0.023,0.762-0.068
		c0.252-0.046,0.495-0.096,0.729-0.151V17.68z"/>
	<path fill="#4D4D4D" d="M59.923,16.154c0.467,0.165,0.913,0.289,1.339,0.371s0.822,0.123,1.188,0.123
		c0.536,0,0.926-0.084,1.171-0.254c0.245-0.169,0.367-0.385,0.367-0.646c0-0.091-0.018-0.175-0.055-0.251
		c-0.036-0.075-0.103-0.147-0.199-0.216c-0.096-0.069-0.228-0.138-0.395-0.206c-0.167-0.069-0.384-0.145-0.649-0.227
		c-0.641-0.197-1.122-0.463-1.442-0.797c-0.32-0.334-0.48-0.758-0.48-1.271c0-0.293,0.073-0.569,0.22-0.828
		c0.146-0.258,0.36-0.485,0.642-0.68c0.282-0.195,0.631-0.348,1.048-0.46c0.417-0.112,0.896-0.168,1.436-0.168
		c0.458,0,0.85,0.02,1.175,0.058c0.325,0.039,0.608,0.083,0.852,0.134v1.367c-0.444-0.133-0.836-0.22-1.175-0.261
		c-0.339-0.041-0.646-0.062-0.92-0.062c-0.284,0-0.522,0.024-0.715,0.072c-0.192,0.048-0.346,0.116-0.46,0.203
		c-0.114,0.087-0.196,0.178-0.244,0.271s-0.072,0.185-0.072,0.271c0,0.105,0.021,0.199,0.062,0.281
		c0.041,0.083,0.114,0.161,0.22,0.234s0.247,0.146,0.426,0.22s0.402,0.151,0.673,0.233c0.623,0.197,1.09,0.449,1.401,0.755
		c0.312,0.307,0.467,0.687,0.467,1.14c0,0.407-0.087,0.759-0.261,1.055s-0.412,0.542-0.715,0.738
		c-0.302,0.196-0.656,0.343-1.064,0.437c-0.407,0.094-0.845,0.141-1.312,0.141c-0.526,0-0.997-0.024-1.411-0.072
		c-0.415-0.048-0.787-0.113-1.116-0.195V16.154z"/>
</g>
</svg>
